# xmcd CD database file
#
# Track frame offsets:
#	150
#	20973
#	40896
#	61344
#	88167
#	108765
#	128988
#	149886
#	170709
#	193182
#
# Disc length: 2852 seconds
#
# Revision: 0
# Processed by: cddbd v1.5.2PL0 Copyright (c) Steve Scherf et al.
# Submitted via: NeoAudio 9.9.9
#
DISCID=9b0b220a
DTITLE=El Gran Combo de Puerto Rico - arroz con habichuela
DYEAR=2006
DGENRE=Salsa
TTITLE0=Si la ves por ahí
TTITLE1=Te veo Nena
TTITLE2=No hay manera
TTITLE3=Arroz con habichuela
TTITLE4=Esa mujer
TTITLE5=Como tiembla el alma
TTITLE6=Yó no mendigo amor
TTITLE7=Piénsalo
TTITLE8=No te detengas a pensar
TTITLE9=Un no se qué
EXTD=YEAR: 2006
EXTT0=
EXTT1=
EXTT2=
EXTT3=
EXTT4=
EXTT5=
EXTT6=
EXTT7=
EXTT8=
EXTT9=
PLAYORDER=
